<svg width="50" height="50" viewBox="0 0 50 50" fill="none" xmlns="http://www.w3.org/2000/svg">
<path d="M17.1875 3.125H3.125V17.1875H6.25V6.25H17.1875V3.125Z" fill="#0096BB"/>
<path d="M3.125 32.8125V46.875H17.1875V43.75H6.25V32.8125H3.125Z" fill="#0096BB"/>
<path d="M46.875 17.1875V3.125H32.8125V6.25H43.75V17.1875H46.875Z" fill="#0096BB"/>
<path d="M32.8125 46.875H46.875V32.8125H43.75V43.75H32.8125V46.875Z" fill="#0096BB"/>
<path d="M39.8281 15.8281L25.7656 8.01564C25.5281 7.8785 25.2587 7.8063 24.9844 7.8063C24.7101 7.8063 24.4407 7.8785 24.2031 8.01564L10.1406 15.8281C9.9051 15.9678 9.71039 16.1669 9.57602 16.4054C9.44165 16.644 9.37233 16.9137 9.37501 17.1875V32.8125C9.37549 33.0894 9.44953 33.3612 9.58955 33.6C9.72956 33.8389 9.93054 34.0362 10.1719 34.1719L24.2344 41.9844C24.4719 42.1215 24.7414 42.1937 25.0156 42.1937C25.2899 42.1937 25.5594 42.1215 25.7969 41.9844L39.8594 34.1719C40.0949 34.0323 40.2896 33.8332 40.424 33.5946C40.5584 33.356 40.6277 33.0863 40.625 32.8125V17.1875C40.6245 16.9106 40.5505 16.6389 40.4105 16.4C40.2705 16.1612 40.0695 15.9638 39.8281 15.8281ZM25 11.1563L35.8438 17.1875L25 23.2188L14.1563 17.1875L25 11.1563ZM12.5 19.8438L23.4375 25.9219V37.9688L12.5 31.8906V19.8438ZM26.5625 37.9688V25.9219L37.5 19.8438V31.8906L26.5625 37.9688Z" fill="#0096BB"/>
</svg>
