<svg width="50" height="50" viewBox="0 0 50 50" fill="none" xmlns="http://www.w3.org/2000/svg">
<path d="M25 10.4167C21.343 10.4167 17.7505 11.3794 14.5835 13.208C11.4165 15.0365 8.78666 17.6665 6.95821 20.8336C5.12977 24.0006 4.16718 27.5932 4.16721 31.2501C4.16723 34.9071 5.12986 38.4996 6.95834 41.6667C7.23461 42.1474 7.69052 42.4986 8.22578 42.6432C8.76104 42.7878 9.33181 42.7138 9.81251 42.4375C10.2932 42.1612 10.6445 41.7053 10.789 41.1701C10.9336 40.6348 10.8596 40.064 10.5833 39.5833C9.10718 37.0544 8.33061 34.1782 8.33334 31.25C8.33434 28.6941 8.92314 26.1727 10.0542 23.8807C11.1853 21.5888 12.8284 19.5877 14.8564 18.0321C16.8843 16.4766 19.2429 15.4083 21.7497 14.9098C24.2565 14.4114 26.8444 14.4962 29.3132 15.1576C31.782 15.819 34.0656 17.0394 35.9874 18.7243C37.9093 20.4093 39.4178 22.5136 40.3965 24.8747C41.3751 27.2358 41.7977 29.7903 41.6314 32.3408C41.4651 34.8913 40.7145 37.3693 39.4375 39.5833C39.2998 39.8211 39.2104 40.0838 39.1746 40.3562C39.1388 40.6287 39.1573 40.9055 39.2289 41.1708C39.3006 41.4361 39.424 41.6846 39.5921 41.902C39.7602 42.1194 39.9696 42.3014 40.2083 42.4375C40.6867 42.7091 41.2531 42.7805 41.7839 42.6361C42.3147 42.4917 42.7668 42.1432 43.0417 41.6667C44.8702 38.4996 45.8328 34.9071 45.8328 31.2501C45.8328 27.5932 44.8703 24.0006 43.0418 20.8336C41.2134 17.6665 38.5835 15.0365 35.4165 13.208C32.2495 11.3794 28.657 10.4167 25 10.4167ZM30.9167 22.4167L27.6875 25.625C26.8516 25.2129 25.932 24.999 25 25C23.7639 25 22.5555 25.3665 21.5277 26.0533C20.4999 26.7401 19.6988 27.7162 19.2258 28.8582C18.7527 30.0003 18.6289 31.2569 18.8701 32.4693C19.1113 33.6817 19.7065 34.7953 20.5806 35.6694C21.4547 36.5435 22.5683 37.1387 23.7807 37.3799C24.9931 37.6211 26.2497 37.4973 27.3918 37.0242C28.5338 36.5512 29.5099 35.7501 30.1967 34.7223C30.8835 33.6945 31.25 32.4861 31.25 31.25C31.2486 30.325 31.0347 29.4126 30.625 28.5833L33.8542 25.375C34.0494 25.1813 34.2044 24.9509 34.3102 24.697C34.416 24.4432 34.4704 24.1708 34.4704 23.8958C34.4704 23.6208 34.416 23.3485 34.3102 23.0946C34.2044 22.8407 34.0494 22.6103 33.8542 22.4167C33.4638 22.0286 32.9358 21.8108 32.3854 21.8108C31.835 21.8108 31.307 22.0286 30.9167 22.4167ZM25 33.3333C24.4475 33.3333 23.9176 33.1138 23.5269 32.7231C23.1362 32.3324 22.9167 31.8025 22.9167 31.25C22.9167 30.6975 23.1362 30.1676 23.5269 29.7769C23.9176 29.3862 24.4475 29.1667 25 29.1667C25.5436 29.1634 26.067 29.3727 26.4583 29.75C26.6577 29.9454 26.8158 30.1789 26.9231 30.4365C27.0305 30.6942 27.085 30.9708 27.0833 31.25C27.0833 31.8025 26.8639 32.3324 26.4732 32.7231C26.0825 33.1138 25.5525 33.3333 25 33.3333Z" fill="#0096BB"/>
</svg>
