<svg width="50" height="50" viewBox="0 0 50 50" fill="none" xmlns="http://www.w3.org/2000/svg">
<path d="M6.24999 6.25H43.75C44.3025 6.25 44.8324 6.46949 45.2231 6.86019C45.6138 7.25089 45.8333 7.7808 45.8333 8.33333V41.6667C45.8333 42.2192 45.6138 42.7491 45.2231 43.1398C44.8324 43.5305 44.3025 43.75 43.75 43.75H6.24999C5.69746 43.75 5.16755 43.5305 4.77685 43.1398C4.38615 42.7491 4.16666 42.2192 4.16666 41.6667V8.33333C4.16666 7.7808 4.38615 7.25089 4.77685 6.86019C5.16755 6.46949 5.69746 6.25 6.24999 6.25V6.25ZM17.7083 29.1667V33.3333H22.9167V37.5H27.0833V33.3333H29.1667C30.548 33.3333 31.8728 32.7846 32.8495 31.8078C33.8263 30.8311 34.375 29.5063 34.375 28.125C34.375 26.7437 33.8263 25.4189 32.8495 24.4422C31.8728 23.4654 30.548 22.9167 29.1667 22.9167H20.8333C20.5571 22.9167 20.2921 22.8069 20.0968 22.6116C19.9014 22.4162 19.7917 22.1513 19.7917 21.875C19.7917 21.5987 19.9014 21.3338 20.0968 21.1384C20.2921 20.9431 20.5571 20.8333 20.8333 20.8333H32.2917V16.6667H27.0833V12.5H22.9167V16.6667H20.8333C19.452 16.6667 18.1272 17.2154 17.1505 18.1922C16.1737 19.1689 15.625 20.4937 15.625 21.875C15.625 23.2563 16.1737 24.5811 17.1505 25.5578C18.1272 26.5346 19.452 27.0833 20.8333 27.0833H29.1667C29.4429 27.0833 29.7079 27.1931 29.9032 27.3884C30.0986 27.5838 30.2083 27.8487 30.2083 28.125C30.2083 28.4013 30.0986 28.6662 29.9032 28.8616C29.7079 29.0569 29.4429 29.1667 29.1667 29.1667H17.7083Z" fill="#0096BB"/>
</svg>
