<svg width="50" height="50" viewBox="0 0 50 50" fill="none" xmlns="http://www.w3.org/2000/svg">
<path d="M31.1875 20.035C31.8002 20.0352 32.3916 20.2603 32.8492 20.6678C33.3068 21.0752 33.5989 21.6365 33.67 22.245L33.6875 22.535V33.455C33.7039 35.7347 32.8258 37.9299 31.2418 39.5694C29.6578 41.2089 27.4941 42.1621 25.2153 42.2242C22.9364 42.2864 20.724 41.4527 19.053 39.9019C17.382 38.3512 16.3855 36.2072 16.2775 33.93L16.265 33.455V22.535C16.2652 21.9223 16.4903 21.331 16.8977 20.8733C17.3051 20.4157 17.8664 20.1236 18.475 20.0525L18.765 20.035H31.1875ZM31.1875 22.535H18.765V33.455C18.7614 35.0691 19.3864 36.6212 20.5075 37.7824C21.6287 38.9436 23.1579 39.6226 24.7712 39.6756C26.3844 39.7286 27.9549 39.1514 29.1498 38.0663C30.3447 36.9811 31.0702 35.4734 31.1725 33.8625L31.1875 33.455V22.535V22.535ZM14.4375 20.035C14.0738 20.6627 13.8519 21.3624 13.7875 22.085L13.765 22.535H7.54001V31.885C7.53975 32.6601 7.73366 33.423 8.10405 34.1039C8.47444 34.7847 9.0095 35.362 9.66037 35.7829C10.3112 36.2038 11.0572 36.455 11.8301 36.5134C12.603 36.5719 13.3782 36.4358 14.085 36.1175C14.285 36.94 14.575 37.7275 14.9475 38.4675C13.8948 38.9096 12.7514 39.0929 11.6133 39.0018C10.4751 38.9107 9.37543 38.548 8.40642 37.9441C7.43741 37.3403 6.62736 36.5128 6.04422 35.5312C5.46107 34.5495 5.12185 33.4424 5.05501 32.3025L5.04251 31.8825V22.535C5.04259 21.9227 5.2674 21.3317 5.6743 20.8741C6.0812 20.4165 6.64188 20.1242 7.25001 20.0525L7.54251 20.035H14.435H14.4375ZM35.5175 20.035H42.4775C43.0902 20.0352 43.6816 20.2603 44.1392 20.6678C44.5968 21.0752 44.8889 21.6365 44.96 22.245L44.9775 22.535V31.885C44.9776 33.0673 44.6841 34.2311 44.1234 35.2719C43.5626 36.3128 42.7522 37.1981 41.7649 37.8484C40.7775 38.4987 39.6441 38.8936 38.4664 38.9978C37.2888 39.1019 36.1037 38.912 35.0175 38.445C35.3875 37.7 35.6775 36.9125 35.875 36.0875C36.5541 36.4044 37.2998 36.552 38.0484 36.5179C38.797 36.4837 39.5262 36.2687 40.1736 35.8913C40.821 35.514 41.3674 34.9854 41.766 34.3508C42.1646 33.7162 42.4036 32.9946 42.4625 32.2475L42.4775 31.885V22.535H36.1875L36.1725 22.1625C36.1179 21.4129 35.894 20.6855 35.5175 20.035V20.035ZM24.9725 7.47253C26.4494 7.47253 27.8659 8.05924 28.9102 9.10358C29.9546 10.1479 30.5413 11.5644 30.5413 13.0413C30.5413 14.5182 29.9546 15.9346 28.9102 16.979C27.8659 18.0233 26.4494 18.61 24.9725 18.61C23.4956 18.61 22.0792 18.0233 21.0348 16.979C19.9905 15.9346 19.4038 14.5182 19.4038 13.0413C19.4038 11.5644 19.9905 10.1479 21.0348 9.10358C22.0792 8.05924 23.4956 7.47253 24.9725 7.47253V7.47253ZM37.44 9.04253C38.7087 9.04253 39.9255 9.54653 40.8226 10.4437C41.7198 11.3408 42.2238 12.5576 42.2238 13.8263C42.2238 15.095 41.7198 16.3118 40.8226 17.2089C39.9255 18.106 38.7087 18.61 37.44 18.61C36.1713 18.61 34.9545 18.106 34.0574 17.2089C33.1603 16.3118 32.6563 15.095 32.6563 13.8263C32.6563 12.5576 33.1603 11.3408 34.0574 10.4437C34.9545 9.54653 36.1713 9.04253 37.44 9.04253V9.04253ZM12.5425 9.04253C13.8112 9.04253 15.028 9.54653 15.9251 10.4437C16.8223 11.3408 17.3263 12.5576 17.3263 13.8263C17.3263 15.095 16.8223 16.3118 15.9251 17.2089C15.028 18.106 13.8112 18.61 12.5425 18.61C11.2738 18.61 10.057 18.106 9.15989 17.2089C8.26276 16.3118 7.75876 15.095 7.75876 13.8263C7.75876 12.5576 8.26276 11.3408 9.15989 10.4437C10.057 9.54653 11.2738 9.04253 12.5425 9.04253V9.04253ZM24.9725 9.97253C24.1586 9.97253 23.3781 10.2958 22.8026 10.8713C22.2271 11.4469 21.9038 12.2274 21.9038 13.0413C21.9038 13.8552 22.2271 14.6357 22.8026 15.2112C23.3781 15.7867 24.1586 16.11 24.9725 16.11C25.7864 16.11 26.5669 15.7867 27.1424 15.2112C27.7179 14.6357 28.0413 13.8552 28.0413 13.0413C28.0413 12.2274 27.7179 11.4469 27.1424 10.8713C26.5669 10.2958 25.7864 9.97253 24.9725 9.97253ZM37.44 11.5425C36.8343 11.5425 36.2534 11.7831 35.8252 12.2114C35.3969 12.6397 35.1563 13.2206 35.1563 13.8263C35.1563 14.432 35.3969 15.0129 35.8252 15.4411C36.2534 15.8694 36.8343 16.11 37.44 16.11C38.0457 16.11 38.6266 15.8694 39.0549 15.4411C39.4832 15.0129 39.7238 14.432 39.7238 13.8263C39.7238 13.2206 39.4832 12.6397 39.0549 12.2114C38.6266 11.7831 38.0457 11.5425 37.44 11.5425V11.5425ZM12.5425 11.5425C11.9368 11.5425 11.3559 11.7831 10.9277 12.2114C10.4994 12.6397 10.2588 13.2206 10.2588 13.8263C10.2588 14.432 10.4994 15.0129 10.9277 15.4411C11.3559 15.8694 11.9368 16.11 12.5425 16.11C13.1482 16.11 13.7291 15.8694 14.1574 15.4411C14.5857 15.0129 14.8263 14.432 14.8263 13.8263C14.8263 13.2206 14.5857 12.6397 14.1574 12.2114C13.7291 11.7831 13.1482 11.5425 12.5425 11.5425V11.5425Z" fill="#0096BB"/>
</svg>
